<svg width="335" height="473" viewBox="0 0 335 473" fill="none" xmlns="http://www.w3.org/2000/svg">
<g filter="url(#hero-filter0_d)">
<rect x="32" y="32.165" width="245.135" height="373.273" fill="white"/>
</g>
<path d="M60.9671 107.992C62.8123 107.992 63.9054 107.15 63.9054 105.726C63.9054 104.031 62.4613 103.81 61.1977 103.61C60.2049 103.459 59.3024 103.319 59.3024 102.446C59.3024 101.674 59.9041 101.233 60.927 101.233C61.9499 101.233 62.6017 101.855 62.6619 102.918H63.6948C63.5845 101.323 62.5716 100.37 60.9671 100.37C59.2523 100.37 58.2394 101.133 58.2394 102.516C58.2394 104.081 59.5932 104.291 60.8066 104.482C61.8496 104.642 62.8323 104.793 62.8323 105.816C62.8323 106.648 62.1504 107.129 60.9871 107.129C59.864 107.129 59.152 106.458 59.0718 105.324H58.0288C58.1492 107.009 59.2422 107.992 60.9671 107.992ZM68.6983 102.898V104.562H68.6783C68.6783 103.459 68.0064 102.797 66.8631 102.797C65.5595 102.797 64.7873 103.76 64.7873 105.395C64.7873 107.029 65.5595 107.992 66.8631 107.992C68.0064 107.992 68.6783 107.33 68.6783 106.227H68.6983V107.892H69.7011V102.898H68.6983ZM67.2944 107.18C66.3617 107.18 65.8202 106.518 65.8202 105.395C65.8202 104.271 66.3617 103.61 67.2944 103.61C68.227 103.61 68.7685 104.312 68.7685 105.395C68.7685 106.478 68.227 107.18 67.2944 107.18ZM71.1791 107.892H72.1819V100.17H71.1791V107.892ZM78.0895 105.395C78.0895 103.76 77.217 102.797 75.7328 102.797C74.2386 102.797 73.3661 103.76 73.3661 105.395C73.3661 107.029 74.2386 107.992 75.7328 107.992C77.0465 107.992 77.919 107.3 78.0895 106.127H77.1067C76.9763 106.809 76.4649 107.21 75.7328 107.21C74.9005 107.21 74.379 106.588 74.3389 105.535H78.0895V105.395ZM75.7328 103.579C76.525 103.579 77.0164 104.141 77.0967 105.114H74.3489C74.4291 104.141 74.9306 103.579 75.7328 103.579ZM81.0836 107.992C82.4474 107.992 83.2597 107.41 83.2597 106.438C83.2597 105.274 82.2067 105.094 81.3142 104.933C80.6323 104.813 80.0306 104.703 80.0306 104.181C80.0306 103.73 80.4217 103.459 81.0836 103.459C81.7655 103.459 82.1566 103.83 82.1566 104.452H83.1093C83.1093 103.409 82.3572 102.797 81.0836 102.797C79.81 102.797 79.0579 103.349 79.0579 104.261C79.0579 105.344 80.0406 105.515 80.9031 105.655C81.6251 105.786 82.287 105.896 82.287 106.528C82.287 107.029 81.8457 107.32 81.0836 107.32C80.3114 107.32 79.8601 106.929 79.8601 106.277H78.9075C78.9075 107.36 79.7197 107.992 81.0836 107.992ZM89.5393 102.797C88.4061 102.797 87.7242 103.459 87.7242 104.562H87.7041V102.898H86.7013V110.198H87.7041V106.227H87.7242C87.7242 107.33 88.4061 107.992 89.5393 107.992C90.8429 107.992 91.6151 107.029 91.6151 105.395C91.6151 103.76 90.8429 102.797 89.5393 102.797ZM89.1181 107.18C88.1855 107.18 87.6339 106.478 87.6339 105.395C87.6339 104.312 88.1855 103.61 89.1181 103.61C90.0507 103.61 90.5922 104.271 90.5922 105.395C90.5922 106.518 90.0507 107.18 89.1181 107.18ZM95.4296 102.797C94.4268 102.797 93.8351 103.559 93.8351 104.853H93.8151V102.898H92.8122V107.892H93.8151V105.515C93.8151 104.372 94.3165 103.7 95.1789 103.7C95.4396 103.7 95.7104 103.77 95.9009 103.88L96.2018 102.948C96.0012 102.857 95.7104 102.797 95.4296 102.797ZM99.0339 107.992C100.608 107.992 101.531 107.029 101.531 105.395C101.531 103.76 100.608 102.797 99.0339 102.797C97.4695 102.797 96.5369 103.76 96.5369 105.395C96.5369 107.029 97.4695 107.992 99.0339 107.992ZM99.0339 107.18C98.1013 107.18 97.5598 106.518 97.5598 105.395C97.5598 104.271 98.1013 103.61 99.0339 103.61C99.9665 103.61 100.508 104.271 100.508 105.395C100.508 106.518 99.9665 107.18 99.0339 107.18ZM105.551 102.797C104.418 102.797 103.736 103.459 103.736 104.562H103.716V102.898H102.713V110.198H103.716V106.227H103.736C103.736 107.33 104.418 107.992 105.551 107.992C106.855 107.992 107.627 107.029 107.627 105.395C107.627 103.76 106.855 102.797 105.551 102.797ZM105.13 107.18C104.197 107.18 103.646 106.478 103.646 105.395C103.646 104.312 104.197 103.61 105.13 103.61C106.063 103.61 106.604 104.271 106.604 105.395C106.604 106.518 106.063 107.18 105.13 107.18ZM111.04 107.992C112.615 107.992 113.537 107.029 113.537 105.395C113.537 103.76 112.615 102.797 111.04 102.797C109.476 102.797 108.543 103.76 108.543 105.395C108.543 107.029 109.476 107.992 111.04 107.992ZM111.04 107.18C110.108 107.18 109.566 106.518 109.566 105.395C109.566 104.271 110.108 103.61 111.04 103.61C111.973 103.61 112.515 104.271 112.515 105.395C112.515 106.518 111.973 107.18 111.04 107.18ZM116.545 107.992C117.909 107.992 118.721 107.41 118.721 106.438C118.721 105.274 117.668 105.094 116.775 104.933C116.094 104.813 115.492 104.703 115.492 104.181C115.492 103.73 115.883 103.459 116.545 103.459C117.227 103.459 117.618 103.83 117.618 104.452H118.57C118.57 103.409 117.818 102.797 116.545 102.797C115.271 102.797 114.519 103.349 114.519 104.261C114.519 105.344 115.502 105.515 116.364 105.655C117.086 105.786 117.748 105.896 117.748 106.528C117.748 107.029 117.307 107.32 116.545 107.32C115.773 107.32 115.321 106.929 115.321 106.277H114.369C114.369 107.36 115.181 107.992 116.545 107.992ZM123.482 102.898V104.562H123.461C123.461 103.459 122.79 102.797 121.646 102.797C120.343 102.797 119.57 103.76 119.57 105.395C119.57 107.029 120.343 107.992 121.646 107.992C122.79 107.992 123.461 107.33 123.461 106.227H123.482V107.892H124.484V102.898H123.482ZM122.078 107.18C121.145 107.18 120.603 106.518 120.603 105.395C120.603 104.271 121.145 103.61 122.078 103.61C123.01 103.61 123.552 104.312 123.552 105.395C123.552 106.478 123.01 107.18 122.078 107.18ZM125.962 107.892H126.965V100.17H125.962V107.892Z" fill="#232323"/>
<path d="M62.0813 316.398H57.7681V317.045H59.5152V322.17H60.3342V317.045H62.0813V316.398ZM63.6284 322.248C64.853 322.248 65.5706 321.499 65.5706 320.228C65.5706 318.956 64.853 318.208 63.6284 318.208C62.4117 318.208 61.6863 318.956 61.6863 320.228C61.6863 321.499 62.4117 322.248 63.6284 322.248ZM63.6284 321.616C62.9031 321.616 62.4819 321.101 62.4819 320.228C62.4819 319.354 62.9031 318.839 63.6284 318.839C64.3538 318.839 64.775 319.354 64.775 320.228C64.775 321.101 64.3538 321.616 63.6284 321.616ZM68.6207 318.855V318.286H66.6474V318.27C67.1153 318.098 67.3961 317.74 67.3961 317.287V316.96H66.6162V318.286H65.961V318.855H66.5616V321.047C66.5616 321.803 67.0139 322.248 67.7705 322.248C68.0513 322.248 68.3477 322.186 68.5661 322.084V321.491C68.4101 321.569 68.2073 321.616 68.0201 321.616C67.5911 321.616 67.3415 321.382 67.3415 320.969V318.855H68.6207ZM72.0596 318.286V319.58H72.044C72.044 318.722 71.5215 318.208 70.6323 318.208C69.6183 318.208 69.0177 318.956 69.0177 320.228C69.0177 321.499 69.6183 322.248 70.6323 322.248C71.5215 322.248 72.044 321.733 72.044 320.875H72.0596V322.17H72.8396V318.286H72.0596ZM70.9677 321.616C70.2423 321.616 69.8211 321.101 69.8211 320.228C69.8211 319.354 70.2423 318.839 70.9677 318.839C71.6931 318.839 72.1142 319.385 72.1142 320.228C72.1142 321.07 71.6931 321.616 70.9677 321.616ZM73.9111 322.17H74.6911V316.164H73.9111V322.17Z" fill="#232323"/>
<path d="M220.725 320.485C220.725 319.167 219.61 318.995 218.627 318.839V317.006C219.298 317.084 219.719 317.552 219.758 318.301H220.561C220.483 317.123 219.766 316.398 218.627 316.328V315.54H218.26V316.32C217.036 316.375 216.318 316.96 216.318 317.989C216.318 319.183 217.332 319.362 218.26 319.51V321.569C217.496 321.491 217.02 320.984 216.966 320.173H216.154C216.24 321.421 217.02 322.178 218.26 322.24V323.043H218.627V322.248C219.945 322.186 220.725 321.546 220.725 320.485ZM217.145 317.935C217.145 317.373 217.558 317.038 218.26 316.999V318.785C217.644 318.676 217.145 318.504 217.145 317.935ZM218.627 321.569V319.565C219.313 319.682 219.89 319.861 219.89 320.555C219.89 321.164 219.43 321.53 218.627 321.569ZM222.24 316.398C222.24 316.897 221.827 317.201 221.117 317.201V317.911C221.811 317.911 222.224 317.451 222.224 316.663H222.24V322.17H223.051V316.398H222.24ZM224.192 321.304V322.17H225.05C224.98 322.537 224.676 322.81 224.184 322.903V323.371C224.762 323.215 225.105 322.716 225.105 322.03V321.304H224.192ZM227.798 318.917H227.751V318.902C228.944 318.902 229.639 318.434 229.639 317.63C229.639 316.835 228.968 316.32 227.829 316.32C226.69 316.32 225.973 317.03 225.895 318.215H226.667C226.714 317.443 227.112 316.983 227.751 316.983C228.406 316.983 228.796 317.318 228.796 317.88C228.796 318.442 228.328 318.816 227.541 318.902V319.51H227.696C228.492 319.51 228.968 319.892 228.968 320.548C228.968 321.203 228.515 321.585 227.759 321.585C227.041 321.585 226.605 321.125 226.573 320.36H225.786C225.856 321.546 226.581 322.248 227.751 322.248C229.046 322.248 229.81 321.616 229.81 320.548C229.81 319.526 229.054 318.917 227.798 318.917ZM234.65 320.08H233.901V316.398H232.38L230.313 320.033V320.727H233.082V322.17H233.901V320.727H234.65V320.08ZM233.09 316.476H233.105V320.08H231.077V320.064L233.09 316.476ZM237.374 322.248C238.723 322.248 239.511 321.148 239.511 319.284C239.511 317.42 238.723 316.32 237.374 316.32C236.024 316.32 235.229 317.42 235.229 319.284C235.229 321.148 236.024 322.248 237.374 322.248ZM237.374 321.577C236.555 321.577 236.071 320.727 236.071 319.284C236.071 317.841 236.555 316.991 237.374 316.991C238.193 316.991 238.676 317.841 238.676 319.284C238.676 320.727 238.193 321.577 237.374 321.577ZM240.195 321.304V322.17H241.108V321.304H240.195ZM243.928 322.248C245.278 322.248 246.066 321.148 246.066 319.284C246.066 317.42 245.278 316.32 243.928 316.32C242.579 316.32 241.783 317.42 241.783 319.284C241.783 321.148 242.579 322.248 243.928 322.248ZM243.928 321.577C243.109 321.577 242.626 320.727 242.626 319.284C242.626 317.841 243.109 316.991 243.928 316.991C244.747 316.991 245.231 317.841 245.231 319.284C245.231 320.727 244.747 321.577 243.928 321.577ZM248.954 322.248C250.303 322.248 251.091 321.148 251.091 319.284C251.091 317.42 250.303 316.32 248.954 316.32C247.604 316.32 246.809 317.42 246.809 319.284C246.809 321.148 247.604 322.248 248.954 322.248ZM248.954 321.577C248.135 321.577 247.651 320.727 247.651 319.284C247.651 317.841 248.135 316.991 248.954 316.991C249.773 316.991 250.256 317.841 250.256 319.284C250.256 320.727 249.773 321.577 248.954 321.577Z" fill="#232323"/>
<path opacity="0.6" d="M60.0668 291.132H59.9871V291.12C60.7164 291.12 61.1454 290.771 61.1454 290.17C61.1454 289.514 60.6919 289.122 59.9136 289.122H58.2099V293.657H60.0055C60.9431 293.657 61.4947 293.179 61.4947 292.376C61.4947 291.592 60.9676 291.132 60.0668 291.132ZM60.5999 290.342C60.5999 290.832 60.2813 291.12 59.742 291.12H58.7308V289.551H59.742C60.2813 289.551 60.5999 289.845 60.5999 290.342ZM60.0361 293.228H58.7308V291.531H60.0361C60.6122 291.531 60.9554 291.843 60.9554 292.376C60.9554 292.91 60.6122 293.228 60.0361 293.228ZM64.4901 290.624V291.616H64.4779C64.4779 290.955 64.055 290.562 63.3564 290.562C62.5474 290.562 62.0694 291.151 62.0694 292.137C62.0694 293.13 62.5474 293.719 63.3564 293.719C64.055 293.719 64.4779 293.32 64.4779 292.658H64.4901V293.657H64.9926V290.624H64.4901ZM63.5525 293.302C62.9396 293.302 62.5842 292.873 62.5842 292.137C62.5842 291.408 62.9396 290.973 63.5525 290.973C64.1714 290.973 64.5269 291.42 64.5269 292.137C64.5269 292.854 64.1714 293.302 63.5525 293.302ZM67.0061 293.719C67.815 293.719 68.293 293.375 68.293 292.799C68.293 292.101 67.6618 291.984 67.1164 291.886C66.6874 291.813 66.3013 291.739 66.3013 291.396C66.3013 291.089 66.5648 290.912 67.0061 290.912C67.4596 290.912 67.7169 291.151 67.7169 291.567H68.2011C68.2011 290.93 67.7537 290.562 67.0061 290.562C66.2584 290.562 65.811 290.893 65.811 291.426C65.811 292.064 66.3932 292.168 66.9203 292.26C67.3738 292.346 67.8027 292.419 67.8027 292.842C67.8027 293.167 67.5086 293.363 67.0061 293.363C66.4974 293.363 66.2032 293.112 66.2032 292.677H65.7191C65.7191 293.332 66.1971 293.719 67.0061 293.719ZM71.6689 292.144C71.6689 291.145 71.148 290.562 70.2655 290.562C69.383 290.562 68.856 291.145 68.856 292.144C68.856 293.136 69.383 293.719 70.2655 293.719C71.0499 293.719 71.5708 293.302 71.6689 292.591H71.1725C71.0928 293.044 70.7558 293.32 70.2655 293.32C69.7139 293.32 69.3769 292.916 69.3524 292.217H71.6689V292.144ZM70.2655 290.961C70.7864 290.961 71.1173 291.328 71.1664 291.966H69.3585C69.4075 291.328 69.7446 290.961 70.2655 290.961ZM75.5236 290.562C74.8249 290.562 74.4082 290.955 74.4082 291.616H74.396V290.624H73.8934V295.067H74.396V292.658H74.4082C74.4082 293.32 74.8249 293.719 75.5236 293.719C76.3325 293.719 76.8167 293.13 76.8167 292.137C76.8167 291.151 76.3325 290.562 75.5236 290.562ZM75.3275 293.308C74.7146 293.308 74.3531 292.854 74.3531 292.137C74.3531 291.42 74.7146 290.973 75.3275 290.973C75.9403 290.973 76.3019 291.408 76.3019 292.137C76.3019 292.873 75.9403 293.308 75.3275 293.308ZM79.0936 290.562C78.4685 290.562 78.1008 291.01 78.1008 291.776H78.0885V290.624H77.586V293.657H78.0885V292.168C78.0885 291.445 78.4133 291.022 78.9649 291.022C79.1304 291.022 79.2958 291.059 79.4123 291.126L79.5655 290.654C79.4429 290.593 79.2713 290.562 79.0936 290.562ZM80.0996 289.95H80.6021V289.306H80.0996V289.95ZM80.0996 293.657H80.6021V290.624H80.0996V293.657ZM82.8409 293.719C83.613 293.719 84.1156 293.302 84.2504 292.585H83.7479C83.6314 293.038 83.3127 293.302 82.8409 293.302C82.2403 293.302 81.8848 292.873 81.8848 292.137C81.8848 291.408 82.2403 290.973 82.8409 290.973C83.2882 290.973 83.5946 291.212 83.7295 291.629H84.232C84.0849 290.948 83.5824 290.562 82.8409 290.562C81.9216 290.562 81.37 291.151 81.37 292.137C81.37 293.13 81.9216 293.719 82.8409 293.719ZM87.5823 292.144C87.5823 291.145 87.0614 290.562 86.1789 290.562C85.2964 290.562 84.7694 291.145 84.7694 292.144C84.7694 293.136 85.2964 293.719 86.1789 293.719C86.9633 293.719 87.4842 293.302 87.5823 292.591H87.0859C87.0062 293.044 86.6692 293.32 86.1789 293.32C85.6273 293.32 85.2903 292.916 85.2658 292.217H87.5823V292.144ZM86.1789 290.961C86.6998 290.961 87.0307 291.328 87.0798 291.966H85.2719C85.3209 291.328 85.658 290.961 86.1789 290.961Z" fill="#232323"/>
<path opacity="0.6" d="M226.913 292.364C226.913 291.359 226.067 291.212 225.307 291.089V289.521C225.877 289.582 226.232 289.974 226.263 290.605H226.784C226.729 289.692 226.183 289.122 225.307 289.067V288.448H225.025V289.061C224.087 289.104 223.53 289.557 223.53 290.342C223.53 291.249 224.296 291.396 225.025 291.512V293.265C224.375 293.216 223.971 292.793 223.928 292.107H223.407C223.468 293.081 224.063 293.669 225.025 293.712V294.344H225.307V293.712C226.318 293.669 226.913 293.173 226.913 292.364ZM224.063 290.311C224.063 289.833 224.418 289.539 225.025 289.508V291.047C224.498 290.955 224.063 290.814 224.063 290.311ZM225.307 293.265V291.555C225.877 291.659 226.373 291.806 226.373 292.401C226.373 292.916 225.981 293.228 225.307 293.265ZM228.166 289.122C228.166 289.496 227.847 289.723 227.308 289.723V290.182C227.835 290.182 228.154 289.864 228.154 289.318H228.166V293.657H228.693V289.122H228.166ZM229.684 293.075V293.657H230.26C230.223 293.933 230.015 294.147 229.684 294.233V294.564C230.07 294.423 230.297 294.056 230.297 293.571V293.075H229.684ZM232.503 293.719C233.533 293.719 234.146 292.854 234.146 291.39C234.146 289.925 233.533 289.061 232.503 289.061C231.468 289.061 230.861 289.925 230.861 291.39C230.861 292.854 231.468 293.719 232.503 293.719ZM232.503 293.271C231.805 293.271 231.4 292.573 231.4 291.39C231.4 290.207 231.805 289.508 232.503 289.508C233.196 289.508 233.607 290.207 233.607 291.39C233.607 292.573 233.196 293.271 232.503 293.271ZM236.471 293.719C237.501 293.719 238.114 292.854 238.114 291.39C238.114 289.925 237.501 289.061 236.471 289.061C235.436 289.061 234.829 289.925 234.829 291.39C234.829 292.854 235.436 293.719 236.471 293.719ZM236.471 293.271C235.773 293.271 235.368 292.573 235.368 291.39C235.368 290.207 235.773 289.508 236.471 289.508C237.164 289.508 237.574 290.207 237.574 291.39C237.574 292.573 237.164 293.271 236.471 293.271ZM240.439 293.719C241.469 293.719 242.082 292.854 242.082 291.39C242.082 289.925 241.469 289.061 240.439 289.061C239.404 289.061 238.797 289.925 238.797 291.39C238.797 292.854 239.404 293.719 240.439 293.719ZM240.439 293.271C239.741 293.271 239.336 292.573 239.336 291.39C239.336 290.207 239.741 289.508 240.439 289.508C241.132 289.508 241.542 290.207 241.542 291.39C241.542 292.573 241.132 293.271 240.439 293.271ZM242.688 293.075V293.657H243.301V293.075H242.688ZM245.556 293.719C246.586 293.719 247.199 292.854 247.199 291.39C247.199 289.925 246.586 289.061 245.556 289.061C244.521 289.061 243.914 289.925 243.914 291.39C243.914 292.854 244.521 293.719 245.556 293.719ZM245.556 293.271C244.858 293.271 244.453 292.573 244.453 291.39C244.453 290.207 244.858 289.508 245.556 289.508C246.249 289.508 246.659 290.207 246.659 291.39C246.659 292.573 246.249 293.271 245.556 293.271ZM249.524 293.719C250.554 293.719 251.166 292.854 251.166 291.39C251.166 289.925 250.554 289.061 249.524 289.061C248.488 289.061 247.882 289.925 247.882 291.39C247.882 292.854 248.488 293.719 249.524 293.719ZM249.524 293.271C248.825 293.271 248.421 292.573 248.421 291.39C248.421 290.207 248.825 289.508 249.524 289.508C250.217 289.508 250.627 290.207 250.627 291.39C250.627 292.573 250.217 293.271 249.524 293.271Z" fill="#232323"/>
<path opacity="0.6" d="M61.0657 300.265H57.7441V300.694H59.1414V304.8H59.6684V300.694H61.0657V300.265ZM63.2932 301.766V302.759H63.2809C63.2809 302.097 62.8581 301.705 62.1594 301.705C61.3505 301.705 60.8725 302.293 60.8725 303.28C60.8725 304.273 61.3505 304.861 62.1594 304.861C62.8581 304.861 63.2809 304.463 63.2809 303.801H63.2932V304.8H63.7957V301.766H63.2932ZM62.3555 304.444C61.7427 304.444 61.3872 304.015 61.3872 303.28C61.3872 302.551 61.7427 302.116 62.3555 302.116C62.9745 302.116 63.3299 302.563 63.3299 303.28C63.3299 303.997 62.9745 304.444 62.3555 304.444ZM66.4219 303.213L67.3351 301.766H66.759L65.9072 303.194H65.8949L65.0492 301.766H64.4731L65.3801 303.213L64.3689 304.8H64.9573L65.8949 303.249H65.9072L66.8448 304.8H67.4393L66.4219 303.213Z" fill="#232323"/>
<path opacity="0.6" d="M230.875 303.507C230.875 302.502 230.029 302.355 229.269 302.232V300.663C229.839 300.724 230.194 301.117 230.225 301.748H230.746C230.691 300.835 230.145 300.265 229.269 300.21V299.591H228.987V300.204C228.049 300.246 227.492 300.7 227.492 301.484C227.492 302.391 228.258 302.538 228.987 302.655V304.408C228.337 304.359 227.933 303.936 227.89 303.249H227.369C227.43 304.224 228.025 304.812 228.987 304.855V305.486H229.269V304.855C230.28 304.812 230.875 304.316 230.875 303.507ZM228.025 301.454C228.025 300.976 228.38 300.682 228.987 300.651V302.189C228.46 302.097 228.025 301.956 228.025 301.454ZM229.269 304.408V302.698C229.839 302.802 230.335 302.949 230.335 303.543C230.335 304.058 229.943 304.371 229.269 304.408ZM232.9 302.275H232.875V302.263C233.795 302.263 234.334 301.889 234.334 301.251C234.334 300.602 233.825 300.204 232.949 300.204C232.073 300.204 231.521 300.755 231.472 301.687H231.968C232.005 301.031 232.348 300.639 232.888 300.639C233.458 300.639 233.795 300.921 233.795 301.399C233.795 301.864 233.396 302.183 232.722 302.263V302.673H232.851C233.531 302.673 233.923 302.998 233.923 303.55C233.923 304.101 233.543 304.426 232.894 304.426C232.287 304.426 231.919 304.04 231.895 303.39H231.386C231.429 304.316 231.987 304.861 232.888 304.861C233.887 304.861 234.469 304.371 234.469 303.55C234.469 302.747 233.88 302.275 232.9 302.275ZM238.26 303.194H237.671V300.265H236.679L234.95 303.157V303.623H237.144V304.8H237.671V303.623H238.26V303.194ZM237.144 300.314H237.157V303.194H235.453V303.182L237.144 300.314ZM240.439 304.861C241.469 304.861 242.082 303.997 242.082 302.532C242.082 301.068 241.469 300.204 240.439 300.204C239.404 300.204 238.797 301.068 238.797 302.532C238.797 303.997 239.404 304.861 240.439 304.861ZM240.439 304.414C239.741 304.414 239.336 303.715 239.336 302.532C239.336 301.35 239.741 300.651 240.439 300.651C241.132 300.651 241.542 301.35 241.542 302.532C241.542 303.715 241.132 304.414 240.439 304.414ZM242.688 304.218V304.8H243.301V304.218H242.688ZM245.556 304.861C246.586 304.861 247.199 303.997 247.199 302.532C247.199 301.068 246.586 300.204 245.556 300.204C244.521 300.204 243.914 301.068 243.914 302.532C243.914 303.997 244.521 304.861 245.556 304.861ZM245.556 304.414C244.858 304.414 244.453 303.715 244.453 302.532C244.453 301.35 244.858 300.651 245.556 300.651C246.249 300.651 246.659 301.35 246.659 302.532C246.659 303.715 246.249 304.414 245.556 304.414ZM249.524 304.861C250.554 304.861 251.167 303.997 251.167 302.532C251.167 301.068 250.554 300.204 249.524 300.204C248.488 300.204 247.882 301.068 247.882 302.532C247.882 303.997 248.488 304.861 249.524 304.861ZM249.524 304.414C248.825 304.414 248.421 303.715 248.421 302.532C248.421 301.35 248.825 300.651 249.524 300.651C250.217 300.651 250.627 301.35 250.627 302.532C250.627 303.715 250.217 304.414 249.524 304.414Z" fill="#232323"/>
<rect x="57.6277" y="130.776" width="193.879" height="13.371" fill="#F8F7FA"/>
<rect x="57.6277" y="153.062" width="193.879" height="13.371" fill="#F8F7FA"/>
<rect x="57.6277" y="175.347" width="193.879" height="13.371" fill="#F8F7FA"/>
<rect x="57.6277" y="339.141" width="193.879" height="13.371" fill="#F8F7FA"/>
<rect x="57.6277" y="361.426" width="105.854" height="13.371" fill="#F8F7FA"/>
<circle cx="67.0988" cy="72.2778" r="9.47112" fill="#F8F7FA"/>
<defs>
<filter id="hero-filter0_d" x="0.801023" y="0.966063" width="343.189" height="471.327" filterUnits="userSpaceOnUse" color-interpolation-filters="sRGB">
<feFlood flood-opacity="0" result="BackgroundImageFix"/>
<feColorMatrix in="SourceAlpha" type="matrix" values="0 0 0 0 0 0 0 0 0 0 0 0 0 0 0 0 0 0 127 0"/>
<feOffset dx="17.828" dy="17.828"/>
<feGaussianBlur stdDeviation="24.5135"/>
<feColorMatrix type="matrix" values="0 0 0 0 0 0 0 0 0 0 0 0 0 0 0 0 0 0 0.15 0"/>
<feBlend mode="normal" in2="BackgroundImageFix" result="effect1_dropShadow"/>
<feBlend mode="normal" in="SourceGraphic" in2="effect1_dropShadow" result="shape"/>
</filter>
</defs>
</svg>
