<svg width="30" height="18" xmlns="http://www.w3.org/2000/svg" fill="none">

    <g>
        <title>Layer 1</title>
        <path id="svg_1" fill="#242424"
            d="m7.31599,0.73633c-2.464,0 -3.938,1.496 -3.938,4.004l-0.044,0l0,-3.784l-2.904,0l0,16.10397l2.904,0l0,-8.86597l0.044,0c0,2.52997 1.474,4.02597 3.938,4.02597c2.77201,0 4.42201,-2.134 4.42201,-5.74197c0,-3.608 -1.65,-5.742 -4.42201,-5.742zm-1.342,9.174c-1.76,0 -2.794,-1.408 -2.794,-3.432c0,-2.046 1.034,-3.432 2.794,-3.432c1.76,0 2.794,1.276 2.794,3.432c0,2.156 -1.034,3.432 -2.794,3.432z" />
    </g>
</svg>